name processed_emg_signals						
nRows=155						
nColumns=7						
 						
endheader						
time	LGLTMED	LRF	LADDLONG	LST	LTA	LGM
0	0.029497007	0.003946598	0.001537416	0.062856782	0.011046493	0.006618651
0.001	0.03250784	0.004294847	0.00099309	0.0716185	0.00995679	0.005787895
0.002	0.035532468	0.004645749	0.000448275	0.080388569	0.008874428	0.004926957
0.003	0.038569163	0.00499911	9.67E-05	0.089161362	0.00779997	0.00403497
0.004	0.041616184	0.00535473	0.000641584	0.097931225	0.006733964	0.003111049
0.005	0.044671774	0.00571241	0.001186011	0.106692489	0.00567694	0.002154289
0.006	0.047734171	0.006071946	0.001729691	0.115439474	0.00462941	0.00116377
0.007	0.050801603	0.006433133	0.002272318	0.124166502	0.003591866	0.000138551
0.008	0.053872293	0.006795763	0.002813588	0.132867897	0.002564779	0.000922327
0.009	0.056944463	0.007159627	0.003353195	0.141537999	0.001548599	0.00201984
0.01	0.060016335	0.007524514	0.00389084	0.150171167	0.000543753	0.003154982
0.011	0.063086134	0.007890214	0.004426223	0.158761789	0.000449355	0.004328764
0.012	0.066152087	0.008256514	0.004959049	0.167304289	0.001430345	0.005542214
0.013	0.069212431	0.008623201	0.005489027	0.175793132	0.002398863	0.006796377
0.014	0.072265413	0.008990062	0.006015867	0.184222832	0.003354579	0.008092313
0.015	0.075309288	0.009356884	0.006539285	0.192587962	0.004297191	0.009431096
0.016	0.07834233	0.009723455	0.007059002	0.200883155	0.005226424	0.010813819
0.017	0.081362824	0.010089562	0.007574742	0.209103116	0.006142028	0.012241584
0.018	0.084369078	0.010454994	0.008086235	0.217242625	0.007043786	0.013715508
0.019	0.087359417	0.010819541	0.008593215	0.225296543	0.007931505	0.015236722
0.02	0.090332189	0.011182994	0.009095425	0.233259822	0.008805024	0.016806365
0.021	0.093285768	0.011545146	0.009592609	0.241127507	0.00966421	0.018425589
0.022	0.096218551	0.011905791	0.010084521	0.248894743	0.010508962	0.020095554
0.023	0.099128966	0.012264726	0.01057092	0.256556779	0.011339207	0.021817429
0.024	0.102015468	0.01262175	0.01105157	0.264108977	0.012154903	0.023592388
0.025	0.104876545	0.012976664	0.011526245	0.271546814	0.012956039	0.025421613
0.026	0.107710717	0.013329275	0.011994724	0.278865886	0.013742635	0.02730629
0.027	0.110516539	0.013679388	0.012456792	0.286061915	0.014514741	0.029247608
0.028	0.113292601	0.014026814	0.012912245	0.293130751	0.015272439	0.031246757
0.029	0.116037531	0.014371369	0.013360884	0.300068378	0.016015841	0.033304929
0.03	0.118749995	0.01471287	0.013802518	0.306870915	0.01674509	0.035423314
0.031	0.121428699	0.015051138	0.014236964	0.313534624	0.017460359	0.037603101
0.032	0.124072389	0.015386001	0.014664048	0.320055906	0.018161853	0.039845472
0.033	0.126679854	0.015717288	0.015083603	0.32643131	0.018849806	0.042151607
0.034	0.129249926	0.016044835	0.01549547	0.332657533	0.019524483	0.044522677
0.035	0.131781479	0.01636848	0.015899501	0.338731423	0.020186178	0.046959847
0.036	0.134273434	0.016688069	0.016295554	0.344649977	0.020835215	0.049464268
0.037	0.136724756	0.01700345	0.016683496	0.35041035	0.021471945	0.052037083
0.038	0.139134457	0.017314478	0.017063203	0.356009849	0.022096752	0.054679421
0.039	0.141501596	0.017621013	0.01743456	0.36144594	0.022710043	0.057392394
0.04	0.143825278	0.017922919	0.017797461	0.366716242	0.023312255	0.060177102
0.041	0.146104657	0.018220068	0.018151809	0.371818536	0.023903853	0.063034623
0.042	0.148338935	0.018512336	0.018497514	0.376750757	0.024485327	0.065966018
0.043	0.150527364	0.018799604	0.018834496	0.381510999	0.025057192	0.068972326
0.044	0.152669243	0.019081761	0.019162686	0.386097513	0.025619991	0.072054565
0.045	0.154763922	0.0193587	0.019482022	0.390508705	0.02617429	0.075213726
0.046	0.156810798	0.019630321	0.01979245	0.394743138	0.026720678	0.078450778
0.047	0.158809319	0.019896529	0.020093926	0.398799531	0.027259768	0.081766659
0.048	0.160758983	0.020157236	0.020386416	0.402676752	0.027792196	0.085162283
0.049	0.162659335	0.02041236	0.020669892	0.406373825	0.028318618	0.08863853
0.05	0.164509972	0.020661825	0.020944339	0.40988992	0.028839712	0.092196252
0.051	0.166310537	0.020905561	0.021209747	0.413224357	0.029356176	0.095836265
0.052	0.168060724	0.021143503	0.021466116	0.416376602	0.029868726	0.099559352
0.053	0.169760274	0.021375595	0.021713455	0.419346262	0.030378098	0.103366262
0.054	0.171408976	0.021601784	0.021951781	0.422133086	0.030885044	0.107257705
0.055	0.173006666	0.021822026	0.02218112	0.424736964	0.031390332	0.111234353
0.056	0.174553229	0.022036281	0.022401506	0.427157917	0.031894747	0.115296841
0.057	0.176048592	0.022244515	0.022612981	0.429396102	0.032399088	0.11944576
0.058	0.177492732	0.022446701	0.022815596	0.431451807	0.032904168	0.12368166
0.059	0.178885669	0.022642819	0.023009409	0.433325443	0.033410813	0.12800505
0.06	0.180227465	0.022832852	0.023194486	0.435017551	0.033919858	0.132416391
0.061	0.181518229	0.023016792	0.023370902	0.43652879	0.034432153	0.136916102
0.062	0.18275811	0.023194635	0.023538739	0.437859939	0.034948556	0.141504553
0.063	0.183947296	0.023366382	0.023698085	0.439011892	0.035469932	0.146182067
0.064	0.18508602	0.023532041	0.023849038	0.439985657	0.035997156	0.150948918
0.065	0.18617455	0.023691627	0.023991701	0.440782352	0.03653111	0.155805332
0.066	0.187213194	0.023845156	0.024126185	0.441403202	0.03707268	0.160751481
0.067	0.188202294	0.023992655	0.024252608	0.441849537	0.037622758	0.165787487
0.068	0.189142228	0.024134152	0.024371094	0.442122789	0.03818224	0.170913419
0.069	0.19003341	0.024269682	0.024481774	0.442224488	0.038752024	0.176129291
0.07	0.190876283	0.024399284	0.024584785	0.442156264	0.03933301	0.181435065
0.071	0.191671322	0.024523005	0.02468027	0.441919837	0.039926099	0.186830644
0.072	0.19241903	0.024640892	0.024768379	0.441517024	0.04053219	0.192315876
0.073	0.193119939	0.024753002	0.024849266	0.440949727	0.041152183	0.197890552
0.074	0.193774604	0.024859392	0.024923092	0.440219937	0.041786974	0.203554403
0.075	0.194383607	0.024960127	0.024990023	0.43932973	0.042437456	0.209307103
0.076	0.194947549	0.025055276	0.025050228	0.438281267	0.043104519	0.215148263
0.077	0.195467054	0.025144909	0.025103885	0.437076785	0.043789046	0.221077436
0.078	0.195942761	0.025229105	0.025151173	0.435718604	0.044491913	0.227094111
0.079	0.19637533	0.025307943	0.025192277	0.43420912	0.045213991	0.233197716
0.08	0.196765431	0.025381509	0.025227386	0.432550801	0.045956139	0.239387615
0.081	0.197113751	0.025449891	0.025256693	0.430746192	0.046719212	0.245663106
0.082	0.197420986	0.025513181	0.025280394	0.428797907	0.047504049	0.252023426
0.083	0.197687841	0.025571475	0.02529869	0.426708631	0.048311482	0.25846774
0.084	0.197915031	0.025624871	0.025311784	0.424481115	0.049142328	0.264995152
0.085	0.198103274	0.025673472	0.025319883	0.422118176	0.049997393	0.271604694
0.086	0.198253293	0.025717383	0.025323195	0.419622698	0.050877468	0.278295332
0.087	0.198365815	0.025756711	0.025321932	0.416997624	0.051783329	0.285065959
0.088	0.198441566	0.02579157	0.025316309	0.414245962	0.052715735	0.291915401
0.089	0.198481272	0.025822071	0.02530654	0.411370775	0.053675432	0.29884241
0.09	0.198485658	0.02584833	0.025292844	0.408375187	0.054663144	0.305845665
0.091	0.198455443	0.025870467	0.025275439	0.405262375	0.05567958	0.312923773
0.092	0.198391342	0.025888603	0.025254546	0.40203557	0.056725429	0.320075267
0.093	0.198294065	0.025902858	0.025230386	0.398698057	0.057801358	0.3272986
0.094	0.198164313	0.025913359	0.025203179	0.395253168	0.058908016	0.334592155
0.095	0.198002777	0.025920231	0.025173149	0.391704284	0.060046029	0.341954232
0.096	0.197810141	0.025923602	0.025140517	0.38805483	0.061216002	0.349383056
0.097	0.197587076	0.025923602	0.025105505	0.384308276	0.062418515	0.356876773
0.098	0.197334241	0.025920361	0.025068335	0.38046813	0.063654127	0.364433449
0.099	0.197052283	0.02591401	0.025029226	0.376537938	0.064923371	0.37205107
0.1	0.196741834	0.025904682	0.024988398	0.372521283	0.066226755	0.379727541
0.101	0.196403513	0.025892511	0.02494607	0.368421779	0.067564763	0.387460689
0.102	0.196037923	0.025877631	0.024902458	0.364243068	0.068937852	0.395248255
0.103	0.195645651	0.025860175	0.024857777	0.35998882	0.070346453	0.403087905
0.104	0.195227267	0.02584028	0.024812238	0.355662729	0.07179097	0.410977219
0.105	0.194783325	0.02581808	0.024766053	0.351268506	0.073271777	0.418913697
0.106	0.194314362	0.025793711	0.024719428	0.34680988	0.074789223	0.426894762
0.107	0.193820896	0.025767307	0.024672567	0.342290595	0.076343628	0.434917751
0.108	0.193303428	0.025739004	0.024625673	0.3377144	0.077935281	0.442979927
0.109	0.192762441	0.025708937	0.024578941	0.333085055	0.079564444	0.45107847
0.11	0.1921984	0.025677239	0.024532566	0.328406318	0.081231347	0.459210486
0.111	0.191611751	0.025644044	0.024486738	0.323681948	0.082936192	0.467373001
0.112	0.191002921	0.025609484	0.024441642	0.318915697	0.084679149	0.475562967
0.113	0.19037232	0.025573693	0.024397459	0.31411131	0.086460357	0.483777263
0.114	0.18972034	0.025536801	0.024354364	0.309272516	0.088279925	0.492012695
0.115	0.189047354	0.025498938	0.024312529	0.304403028	0.09013793	0.500265998
0.116	0.18835372	0.025460232	0.024272118	0.29950654	0.092034416	0.50853384
0.117	0.187639774	0.025420811	0.024233293	0.294586719	0.093969395	0.516812819
0.118	0.18690584	0.025380802	0.024196206	0.289647205	0.095942849	0.525099475
0.119	0.186152221	0.025340329	0.024161007	0.284691603	0.097954724	0.53339028
0.12	0.185379209	0.025299515	0.024127838	0.279723486	0.100004935	0.541681651
0.121	0.184587075	0.025258482	0.024096832	0.274746383	0.102093363	0.549969947
0.122	0.183776078	0.025217349	0.024068121	0.269763782	0.104219856	0.558251475
0.123	0.182946464	0.025176234	0.024041825	0.264779123	0.106384228	0.56652249
0.124	0.182098461	0.025135253	0.02401806	0.259795797	0.108586259	0.574779201
0.125	0.181232287	0.025094521	0.023996933	0.254817139	0.110825695	0.583017772
0.126	0.180348148	0.025054148	0.023978545	0.249846427	0.113102248	0.591234328
0.127	0.179446236	0.025014246	0.02396299	0.24488688	0.115415593	0.599424956
0.128	0.178526733	0.024974922	0.023950352	0.239941652	0.117765374	0.607585711
0.129	0.177589812	0.024936282	0.023940709	0.235013832	0.120151197	0.615712619
0.13	0.176635637	0.024898428	0.023934132	0.230106438	0.122572635	0.623801679
0.131	0.175664361	0.024861462	0.023930682	0.225222417	0.125029223	0.63184887
0.132	0.174676132	0.024825482	0.023930414	0.220364642	0.127520463	0.639850155
0.133	0.17367109	0.024790584	0.023933373	0.215535908	0.13004582	0.647801482
0.134	0.172649371	0.024756861	0.023939597	0.210738933	0.132604724	0.655698791
0.135	0.171611105	0.024724404	0.023949117	0.205976351	0.135196568	0.66353802
0.136	0.170556418	0.024693302	0.023961953	0.201250716	0.137820708	0.671315103
0.137	0.169485434	0.024663639	0.023978121	0.196564494	0.140476466	0.679025981
0.138	0.168398273	0.024635499	0.023997624	0.191920067	0.143163127	0.686666603
0.139	0.167295056	0.024608961	0.02402046	0.187319728	0.145879937	0.694232932
0.14	0.166175902	0.024584102	0.02404662	0.182765683	0.148626108	0.701720948
0.141	0.165040934	0.024560996	0.024076082	0.178260044	0.151400814	0.709126651
0.142	0.163890272	0.024539714	0.024108823	0.173804837	0.154203191	0.716446071
0.143	0.162724042	0.024520324	0.024144805	0.169401992	0.157032339	0.723675266
0.144	0.161542371	0.024502891	0.024183988	0.165053347	0.159887322	0.730810328
0.145	0.160345392	0.024487476	0.024226322	0.160760651	0.162767164	0.737847392
0.146	0.159133242	0.024474138	0.024271748	0.156525555	0.165670853	0.744782633
0.147	0.157906065	0.024462932	0.024320202	0.152349619	0.16859734	0.751612275
0.148	0.15666401	0.024453909	0.024371611	0.148234311	0.171545537	0.758332594
0.149	0.155407233	0.024447119	0.024425897	0.144181002	0.174514321	0.764939921
0.15	0.154135901	0.024442605	0.024482973	0.140190975	0.17750253	0.77143065
0.151	0.152850187	0.02444041	0.024542745	0.136265417	0.180508963	0.777801235
0.152	0.151550274	0.024440572	0.024605116	0.132405425	0.183532385	0.784048201
0.153	0.150236355	0.024443125	0.024669978	0.128612004	0.186571522	0.790168143
0.154	0.148908635	0.0244481	0.024737219	0.124886069	0.189625063	0.796157731
